<?xml version="1.0" encoding="UTF-8"?>
<svg id="Layer_1" data-name="Layer 1" xmlns="http://www.w3.org/2000/svg" viewBox="0 0 95.61 88.78">
  <defs>
    <style>
      .cls-1 {
        fill: #231f20;
      }
    </style>
  </defs>
  <path class="cls-1" d="M32.01,78.37l-18.26-.07c-1.53-.22-2.56-1.31-2.7-2.84-.5-5.6.6-12.18,0-17.72-.07-.61-.4-1.29-.83-1.72-1.88-1.88-5.01-.41-5.02,2.18,1.12,8.4-4.23,25.07,8.7,25.94,5.5.37,11.4-.28,16.94,0,3.65.02,4.65-4.55,1.16-5.79Z"/>
  <path class="cls-1" d="M91.79,75.44c.39-5.49-.29-11.41,0-16.94.05-3.65-4.57-4.64-5.79-1.16l-.07,18.1c-.16,1.62-1.22,2.71-2.84,2.86-5.6.5-12.18-.6-17.72,0-.61.07-1.29.4-1.72.83-1.88,1.89-.42,5,2.2,5.01,8.45-1.07,25.01,4.22,25.93-8.68Z"/>
  <path class="cls-1" d="M65.21,10.51c5.72.44,12.23-.55,17.85.02,1.75.18,2.71,1.28,2.86,3,.49,5.65-.39,11.98,0,17.7.89,3.62,5.76,2.98,5.84-.75-.86-6.32,2.16-18.56-2.68-23.28-1.62-1.58-3.79-2.36-6.03-2.52-5.49-.39-11.41.29-16.94,0-3.82-.04-4.61,4.9-.9,5.84Z"/>
  <path class="cls-1" d="M21.25,10.25c.15-.07.63-.42.76-.55,2.11-2.12.3-4.81-2.48-5.03-6.74-.53-13.59.62-14.1,8.7-.35,5.57.28,11.5,0,17.11.07,3.65,4.8,4.36,5.82.88.46-5.81-.48-12.26.03-17.99.43-4.77,7.18-1.89,9.97-3.12Z"/>
  <path class="cls-1" d="M30.44,10.52c1.42.16,4.22.21,5.26-.83,1.38-1.38.98-3.91-.83-4.68-1.02-.43-3.13-.46-4.23-.31-3.75.5-3.57,5.43-.19,5.81Z"/>
  <path class="cls-1" d="M55.05,78.89c-1.02-.43-3.13-.46-4.23-.31-3.75.5-3.57,5.43-.19,5.81,1.42.16,4.22.21,5.26-.83,1.38-1.38.98-3.91-.83-4.68Z"/>
  <path class="cls-1" d="M48.05,20.31c-13.24,0-23.98,10.74-23.98,23.98s10.74,23.98,23.98,23.98c13.24,0,23.98-10.74,23.98-23.98,0-13.24-10.74-23.98-23.98-23.98ZM60.61,40.24l-14.1,14.1s-.06.06-.1.09c-.72.6-1.84,1.37-3.26,1.18-.73-.1-1.46-.43-2.23-1.04-1.74-1.36-5.84-5.51-7.2-7.2-1.51-1.86-1.49-4.08.05-5.52.82-.76,2-1.13,3.18-.97.55.07,1.06.26,1.5.54.08.05.16.11.23.18l4.9,4.86,11.99-11.97c.08-.08.16-.14.25-.2.85-.53,1.77-.75,2.67-.63,1.38.18,2.54,1.13,3.03,2.48.51,1.4.17,2.93-.91,4.08Z"/>
</svg>
