<?xml version="1.0" encoding="UTF-8"?>
<svg id="Layer_1" data-name="Layer 1" xmlns="http://www.w3.org/2000/svg" viewBox="0 0 427.29 120.28">
  <defs>
    <style>
      .cls-1 {
        fill: #231f20;
      }
    </style>
  </defs>
  <path class="cls-1" d="M45.85,95.83l-18.26-.07c-1.53-.22-2.56-1.31-2.7-2.84-.5-5.6.6-12.18,0-17.72-.07-.61-.4-1.29-.83-1.72-1.88-1.88-5.01-.41-5.02,2.18,1.12,8.4-4.23,25.07,8.7,25.94,5.5.37,11.4-.28,16.94,0,3.65.02,4.65-4.55,1.16-5.79Z"/>
  <path class="cls-1" d="M410.34,92.9c.39-5.49-.29-11.41,0-16.94.05-3.65-4.57-4.64-5.79-1.16l-.07,18.1c-.16,1.62-1.22,2.71-2.84,2.86-5.6.5-12.18-.6-17.72,0-.61.07-1.29.4-1.72.83-1.88,1.89-.42,5,2.2,5.01,8.45-1.07,25.01,4.22,25.93-8.68Z"/>
  <path class="cls-1" d="M383.76,27.97c5.72.44,12.23-.55,17.85.02,1.75.18,2.71,1.28,2.86,3,.49,5.65-.39,11.98,0,17.7.89,3.62,5.76,2.98,5.84-.75-.86-6.32,2.16-18.56-2.68-23.28-1.62-1.58-3.79-2.36-6.03-2.52-5.49-.39-11.41.29-16.94,0-3.82-.04-4.61,4.9-.9,5.84Z"/>
  <path class="cls-1" d="M35.09,27.71c.15-.07.63-.42.76-.55,2.11-2.12.3-4.81-2.48-5.03-6.74-.53-13.59.62-14.1,8.7-.35,5.57.28,11.5,0,17.11.07,3.65,4.8,4.36,5.82.88.46-5.81-.48-12.26.03-17.99.43-4.77,7.18-1.89,9.97-3.12Z"/>
  <path class="cls-1" d="M44.28,27.98c1.42.16,4.22.21,5.26-.83,1.38-1.38.98-3.91-.83-4.68-1.02-.43-3.13-.46-4.23-.31-3.75.5-3.57,5.43-.19,5.81Z"/>
  <path class="cls-1" d="M373.61,96.35c-1.02-.43-3.13-.46-4.23-.31-3.75.5-3.57,5.43-.19,5.81,1.42.16,4.22.21,5.26-.83,1.38-1.38.98-3.91-.83-4.68Z"/>
  <path class="cls-1" d="M102.2,63.75c0,3.69.42,6.88,1.26,9.57.84,2.69,2.04,4.89,3.59,6.6,1.55,1.71,3.42,2.97,5.61,3.79,2.19.82,4.58,1.23,7.18,1.23,2.69,0,5.06-.38,7.11-1.13,2.05-.75,3.74-1.73,5.06-2.94,1.32-1.21,2.32-2.57,3.01-4.1.68-1.53,1.03-3.11,1.03-4.75,0-1.14-.31-2.02-.92-2.63-.62-.62-1.47-.92-2.56-.92-1,0-1.77.3-2.29.89-.52.59-.92,1.32-1.2,2.19-.18,1-.48,1.9-.89,2.7-.41.8-.97,1.48-1.67,2.05-.71.57-1.6,1-2.67,1.3-1.07.3-2.4.44-4,.44-1.55,0-2.93-.27-4.14-.82-1.21-.55-2.23-1.4-3.08-2.56-.84-1.16-1.47-2.64-1.88-4.44-.41-1.8-.62-3.95-.62-6.46v-6.02c0-2.55.22-4.73.65-6.53.43-1.8,1.06-3.28,1.88-4.44.82-1.16,1.83-2,3.04-2.53,1.21-.52,2.59-.79,4.14-.79,2.78,0,4.86.48,6.26,1.44,1.39.96,2.38,2.57,2.97,4.85.27.96.67,1.69,1.2,2.19.52.5,1.31.75,2.36.75,1.14,0,2-.33,2.6-.99.59-.66.89-1.58.89-2.77,0-1.32-.3-2.7-.89-4.14-.59-1.44-1.55-2.77-2.87-4-1.32-1.23-3-2.24-5.02-3.04-2.03-.8-4.52-1.2-7.49-1.2-2.6,0-4.99.41-7.18,1.23-2.19.82-4.06,2.08-5.61,3.79-1.55,1.71-2.75,3.9-3.59,6.56-.84,2.67-1.26,5.87-1.26,9.6v6.02Z"/>
  <path class="cls-1" d="M161.94,57.6c.59.59,1.05,1.39,1.37,2.39.32,1,.48,2.26.48,3.76v17.57c0,1.09.33,1.97.99,2.63s1.54.99,2.63.99c1.09,0,1.98-.33,2.67-.99.68-.66,1.03-1.54,1.03-2.63v-18.39c0-2.46-.33-4.55-.99-6.25-.66-1.71-1.55-3.09-2.67-4.14-1.12-1.05-2.43-1.81-3.93-2.29-1.5-.48-3.14-.72-4.92-.72-2.23,0-4,.33-5.3.99-1.3.66-2.31,1.52-3.04,2.56v-12.92c0-1.09-.33-1.97-.99-2.63-.66-.66-1.54-.99-2.63-.99-1.09,0-1.98.33-2.67.99-.68.66-1.03,1.54-1.03,2.63v41.15c0,1.09.34,1.97,1.03,2.63.68.66,1.57.99,2.67.99,1.09,0,1.97-.33,2.63-.99.66-.66.99-1.54.99-2.63v-17.64c0-2.32.6-4.18,1.81-5.57,1.21-1.39,2.95-2.08,5.23-2.08.91,0,1.77.11,2.56.34.8.23,1.49.64,2.08,1.23Z"/>
  <path class="cls-1" d="M199.09,83.88c.84-.34,1.56-.74,2.15-1.2.59-.45,1.12-.93,1.57-1.44.41-.41.74-.88.99-1.4.25-.52.38-1.06.38-1.61,0-.96-.3-1.73-.89-2.32-.59-.59-1.37-.89-2.32-.89-.59,0-1.12.13-1.57.38-.46.25-.87.58-1.23.99-.5.64-1.19,1.16-2.05,1.57-.87.41-2.19.62-3.96.62-1.28,0-2.39-.22-3.35-.65-.96-.43-1.72-1.06-2.29-1.88-.57-.82-1-1.78-1.3-2.87-.3-1.09-.44-2.28-.44-3.55v-.62s16.75,0,16.75,0c1.09,0,1.97-.34,2.63-1.03.66-.68.99-1.57.99-2.67v-.75c0-4.83-1.15-8.54-3.45-11.14-2.3-2.6-5.75-3.9-10.36-3.9-4.47,0-7.9,1.3-10.29,3.9-2.39,2.6-3.59,6.4-3.59,11.42v4.65c0,2.23.32,4.31.96,6.22.64,1.91,1.58,3.54,2.84,4.89,1.25,1.34,2.81,2.4,4.68,3.18,1.87.77,4.03,1.16,6.49,1.16,1.41,0,2.67-.09,3.76-.27,1.09-.18,2.06-.44,2.9-.79ZM184.77,63.21c.23-2.28.85-4.07,1.88-5.37,1.03-1.3,2.59-1.95,4.68-1.95,2.05,0,3.61.61,4.68,1.85,1.07,1.23,1.68,3.05,1.81,5.47v.21s-13.06,0-13.06,0v-.21Z"/>
  <path class="cls-1" d="M219.36,83.82c1.87.75,4.01,1.13,6.43,1.13,2.73,0,4.92-.35,6.56-1.06,1.64-.71,2.92-1.58,3.83-2.63.45-.36.83-.8,1.13-1.3.3-.5.44-1.07.44-1.71,0-.96-.32-1.72-.96-2.29-.64-.57-1.44-.85-2.39-.85-.55,0-1.05.13-1.5.38-.46.25-.89.58-1.3.99-.59.68-1.37,1.21-2.32,1.57-.96.37-2.07.55-3.35.55-1.5,0-2.76-.24-3.76-.72-1-.48-1.81-1.14-2.43-1.98-.62-.84-1.05-1.85-1.3-3.01-.25-1.16-.38-2.4-.38-3.73v-3.96c0-2.96.64-5.25,1.91-6.87,1.27-1.62,3.26-2.43,5.95-2.43,1.41,0,2.59.23,3.52.68.93.46,1.65.91,2.15,1.37.32.32.68.58,1.09.79.41.21.91.31,1.5.31.91,0,1.69-.3,2.32-.89.64-.59.96-1.34.96-2.26,0-.77-.18-1.41-.55-1.91-.37-.5-.8-.96-1.3-1.37-.96-.82-2.21-1.54-3.76-2.15-1.55-.62-3.49-.92-5.81-.92-4.92,0-8.71,1.32-11.35,3.96-2.64,2.64-3.96,6.43-3.96,11.35v4.65c0,2.32.34,4.43,1.02,6.32.68,1.89,1.65,3.51,2.91,4.85,1.25,1.34,2.81,2.39,4.68,3.14Z"/>
  <path class="cls-1" d="M244.52,83.95c.68.66,1.55.99,2.6.99,1.14,0,2.04-.33,2.7-.99.66-.66.99-1.54.99-2.63v-8.8s2.6-2.52,2.6-2.52l11.9,13.44c.32.41.72.76,1.2,1.06.48.3,1.04.44,1.68.44,1,0,1.85-.32,2.53-.96.68-.64,1.02-1.48,1.02-2.53,0-.45-.08-.89-.24-1.3-.16-.41-.4-.75-.72-1.03l-12.54-13.84,10.22-10.01c.32-.32.58-.68.79-1.09.2-.41.31-.84.31-1.3,0-1-.31-1.81-.92-2.43-.62-.62-1.45-.92-2.5-.92-.59,0-1.11.13-1.54.38-.43.25-.83.56-1.2.92l-12.58,12.45v-23.11c0-1.09-.33-1.97-.99-2.63-.66-.66-1.54-.99-2.63-.99-1.09,0-1.98.33-2.67.99-.68.66-1.03,1.54-1.03,2.63v41.15c0,1.09.34,1.97,1.03,2.63Z"/>
  <path class="cls-1" d="M306.94,36.79c-.62-.62-1.45-.92-2.5-.92h-28.98c-1.05,0-1.88.31-2.5.92-.62.62-.92,1.45-.92,2.49,0,1.05.31,1.89.92,2.53.62.64,1.45.96,2.5.96h10.53s0,36.98,0,36.98c0,1.19.35,2.13,1.06,2.84.71.71,1.65,1.06,2.84,1.06,1.27,0,2.27-.35,2.97-1.06.71-.71,1.06-1.65,1.06-2.84v-36.98s10.53,0,10.53,0c1.05,0,1.88-.31,2.5-.92.62-.62.92-1.47.92-2.56,0-1.05-.31-1.88-.92-2.49Z"/>
  <path class="cls-1" d="M320.16,51.87c0-1.09-.33-1.97-.99-2.63-.66-.66-1.54-.99-2.63-.99-1.09,0-1.98.33-2.67.99-.68.66-1.03,1.54-1.03,2.63v28.16c0,1.09.33,1.97.99,2.63.66.66,1.54.99,2.63.99,1.14,0,2.04-.33,2.7-.99.66-.66.99-1.54.99-2.63v-28.16Z"/>
  <path class="cls-1" d="M316.47,43.25c1.23,0,2.21-.36,2.94-1.09.73-.73,1.09-1.69,1.09-2.87,0-1.23-.37-2.21-1.09-2.94-.73-.73-1.69-1.09-2.87-1.09-1.19,0-2.15.37-2.91,1.09-.75.73-1.13,1.69-1.13,2.87,0,1.19.36,2.15,1.09,2.91.73.75,1.69,1.13,2.87,1.13Z"/>
  <path class="cls-1" d="M353.39,74.66c-.64-.57-1.44-.85-2.39-.85-.55,0-1.05.13-1.5.38-.46.25-.89.58-1.3.99-.59.68-1.37,1.21-2.32,1.57-.96.37-2.07.55-3.35.55-1.5,0-2.76-.24-3.76-.72-1-.48-1.81-1.14-2.43-1.98-.62-.84-1.05-1.85-1.3-3.01-.25-1.16-.38-2.4-.38-3.73v-3.96c0-2.96.64-5.25,1.91-6.87,1.28-1.62,3.26-2.43,5.95-2.43,1.41,0,2.59.23,3.52.68.93.46,1.65.91,2.15,1.37.32.32.68.58,1.09.79.41.21.91.31,1.5.31.91,0,1.69-.3,2.32-.89.64-.59.96-1.34.96-2.26,0-.77-.18-1.41-.55-1.91-.37-.5-.8-.96-1.3-1.37-.96-.82-2.21-1.54-3.76-2.15-1.55-.62-3.49-.92-5.81-.92-4.92,0-8.71,1.32-11.35,3.96-2.64,2.64-3.96,6.43-3.96,11.35v4.65c0,2.32.34,4.43,1.03,6.32.68,1.89,1.65,3.51,2.91,4.85,1.25,1.34,2.81,2.39,4.68,3.14,1.87.75,4.01,1.13,6.43,1.13,2.73,0,4.92-.35,6.56-1.06,1.64-.71,2.92-1.58,3.83-2.63.45-.36.83-.8,1.13-1.3.3-.5.44-1.07.44-1.71,0-.96-.32-1.72-.96-2.29Z"/>
  <path class="cls-1" d="M363.71,83.65c1.14,0,2.04-.33,2.7-.99.66-.66.99-1.54.99-2.63v-8.8s2.6-2.52,2.6-2.52l11.9,13.44c.32.41.72.76,1.2,1.06.48.3,1.04.44,1.68.44,1,0,1.85-.32,2.53-.96.68-.64,1.02-1.48,1.02-2.53,0-.45-.08-.89-.24-1.3-.16-.41-.4-.75-.72-1.03l-12.54-13.84,10.22-10.01c.32-.32.58-.68.79-1.09.2-.41.31-.84.31-1.3,0-1-.31-1.81-.92-2.43-.62-.62-1.45-.92-2.5-.92-.59,0-1.11.13-1.54.38-.43.25-.83.56-1.2.92l-12.58,12.45v-23.11c0-1.09-.33-1.97-.99-2.63-.66-.66-1.54-.99-2.63-.99-1.09,0-1.98.33-2.67.99-.68.66-1.03,1.54-1.03,2.63v41.15c0,1.09.34,1.97,1.03,2.63s1.55.99,2.6.99Z"/>
  <path class="cls-1" d="M64.76,37.77c-13.24,0-23.98,10.74-23.98,23.98s10.74,23.98,23.98,23.98c13.24,0,23.98-10.74,23.98-23.98,0-13.24-10.74-23.98-23.98-23.98ZM77.32,57.7l-14.1,14.1s-.06.06-.1.09c-.72.6-1.84,1.37-3.26,1.18-.73-.1-1.46-.43-2.23-1.04-1.74-1.36-5.84-5.51-7.2-7.2-1.51-1.86-1.49-4.08.05-5.52.82-.76,2-1.13,3.18-.97.55.07,1.06.26,1.5.54.08.05.16.11.23.18l4.9,4.86,11.99-11.97c.08-.08.16-.14.25-.2.85-.53,1.77-.75,2.67-.63,1.38.18,2.54,1.13,3.03,2.48.51,1.4.17,2.93-.91,4.08Z"/>
</svg>
